<?xml version="1.0" standalone="no"?>
<!DOCTYPE svg PUBLIC "-//W3C//DTD SVG 20010904//EN"
 "http://www.w3.org/TR/2001/REC-SVG-20010904/DTD/svg10.dtd">
<svg version="1.0" xmlns="http://www.w3.org/2000/svg"
 width="580.000000pt" height="430.000000pt" viewBox="0 0 580.000000 430.000000"
 preserveAspectRatio="xMidYMid meet">

<g transform="translate(0.000000,430.000000) scale(0.100000,-0.100000)"
fill="#000000" stroke="none">
<path d="M1113 2587 c-15 -12 -38 -29 -49 -37 -12 -8 -56 -39 -98 -69 l-75
-54 -47 -141 c-26 -77 -46 -150 -46 -161 0 -36 85 -288 103 -304 9 -9 51 -41
93 -71 43 -30 93 -67 113 -82 36 -28 37 -28 193 -28 l157 0 126 93 125 92 51
152 51 152 -50 148 c-30 90 -57 153 -68 161 -11 7 -68 48 -127 92 l-109 80
-157 0 c-149 0 -159 -1 -186 -23z m293 -6 c-4 -5 -66 -52 -139 -105 -72 -53
-140 -102 -149 -109 -16 -13 -14 -24 32 -166 28 -83 50 -156 50 -161 0 -6 -35
-10 -83 -10 l-83 0 -61 192 -62 191 27 21 c15 12 67 51 117 88 l90 66 133 1
c78 1 131 -3 128 -8z m152 -71 c53 -38 106 -78 118 -87 22 -19 101 -239 90
-250 -6 -7 -46 20 -176 117 -42 31 -90 65 -107 75 -35 21 -18 30 -197 -103
-54 -40 -102 -69 -106 -65 -4 4 -18 39 -30 77 l-23 69 39 33 c22 18 41 33 44
34 3 0 57 38 120 85 63 47 119 85 123 85 5 0 52 -31 105 -70z m-598 -325 c23
-71 45 -140 50 -152 9 -23 13 -23 180 -23 93 0 170 -3 170 -7 0 -5 -11 -42
-23 -83 l-24 -75 -204 -3 -205 -2 -43 137 c-25 75 -44 142 -44 148 0 5 17 64
38 130 44 140 37 145 105 -70z m588 108 c50 -38 123 -90 162 -118 82 -58 81
-45 23 -222 l-36 -111 -104 -77 c-58 -42 -107 -75 -109 -72 -2 2 20 79 51 171
30 92 55 174 55 184 -1 9 -32 39 -71 67 -142 101 -189 137 -189 145 0 6 118
100 125 100 1 0 43 -30 93 -67z m-187 -90 c27 -20 49 -44 48 -53 0 -8 -8 -37
-18 -65 l-18 -50 -70 -3 -71 -3 -21 56 c-12 31 -21 61 -21 68 0 15 89 86 109
87 8 0 36 -17 62 -37z m148 -109 c34 -25 61 -51 59 -58 -2 -6 -30 -94 -63
-194 l-59 -182 -148 0 -148 0 -106 78 -106 77 193 5 193 5 22 60 c18 50 65
193 80 243 6 19 16 15 83 -34z"/>
<path d="M3282 2403 l3 -48 58 -3 57 -3 0 51 0 50 -61 0 -60 0 3 -47z"/>
<path d="M1934 2396 c-11 -28 1 -50 32 -58 33 -8 23 21 120 -343 14 -49 30
-110 37 -135 l13 -45 54 0 55 0 63 193 c35 105 67 192 71 192 3 0 30 -75 60
-167 78 -246 64 -223 127 -223 l53 0 11 43 c6 23 19 71 29 107 18 62 53 190
86 313 14 51 19 58 45 64 26 5 30 10 30 39 l0 34 -115 0 -115 0 0 -34 c0 -30
4 -35 30 -41 17 -4 30 -9 30 -12 0 -7 -69 -299 -77 -327 -3 -10 -8 -14 -13
-10 -6 7 -90 264 -129 394 -6 21 -15 26 -49 28 -31 2 -43 -1 -50 -15 -5 -10
-35 -101 -67 -203 -31 -102 -60 -191 -65 -199 -4 -8 -24 55 -49 157 -22 93
-41 172 -41 175 0 2 14 7 30 11 27 5 30 10 30 41 l0 35 -115 0 c-92 0 -117 -3
-121 -14z"/>
<path d="M4457 2343 c-14 -38 -49 -131 -77 -208 -85 -232 -91 -246 -116 -256
-18 -6 -24 -16 -24 -39 l0 -31 103 3 102 3 3 28 c3 22 -1 30 -18 34 -19 5 -21
10 -15 42 4 20 9 39 11 43 3 5 54 8 114 8 l108 0 11 -31 c16 -46 14 -59 -9
-59 -16 0 -20 -7 -20 -35 l0 -36 103 3 102 3 0 30 c0 23 -5 31 -21 33 -16 2
-27 17 -39 50 -9 26 -27 76 -40 112 -13 36 -47 128 -75 205 -28 77 -53 146
-55 153 -3 8 -25 12 -63 12 l-59 0 -26 -67z m127 -177 c20 -55 34 -101 32
-103 -2 -2 -37 -3 -79 -1 l-75 3 35 108 c19 60 39 105 43 100 5 -4 25 -53 44
-107z"/>
<path d="M4880 2375 c0 -30 4 -35 33 -43 l32 -8 0 -220 0 -219 -32 -3 c-30 -3
-33 -6 -33 -38 l0 -34 125 0 125 0 0 34 c0 32 -3 35 -32 38 l-33 3 0 220 0
219 33 10 c28 8 32 13 32 42 l0 34 -125 0 -125 0 0 -35z"/>
<path d="M3559 2353 c-1 -5 -2 -12 -4 -18 -1 -5 -3 -27 -3 -47 -2 -35 -4 -38
-33 -38 -29 0 -30 -2 -27 -37 3 -33 7 -39 33 -43 l30 -5 1 -150 2 -149 36 -33
c31 -29 43 -33 88 -33 71 0 82 9 74 54 -6 31 -11 36 -34 36 -47 0 -52 14 -52
151 l0 128 38 3 c35 3 37 5 40 41 l3 37 -40 0 -41 0 0 55 0 55 -55 0 c-30 0
-56 -3 -56 -7z"/>
<path d="M3074 2231 c-30 -32 -44 -32 -44 0 0 17 -8 19 -85 19 l-85 0 0 -35
c0 -31 3 -35 25 -35 37 0 45 -27 45 -147 0 -134 -5 -153 -36 -153 -21 0 -24
-5 -24 -35 l0 -35 115 0 115 0 0 34 c0 30 -3 35 -27 38 l-28 3 -3 115 c-3 107
-1 116 19 133 13 10 38 17 64 17 40 0 43 2 49 31 14 69 10 79 -33 79 -31 0
-46 -7 -67 -29z"/>
<path d="M3917 2239 c-100 -53 -145 -214 -90 -324 39 -77 103 -115 193 -115
61 0 160 32 160 52 0 5 -7 22 -15 39 -15 29 -16 29 -46 14 -17 -9 -53 -16 -82
-17 -45 0 -55 4 -80 32 -17 19 -27 40 -25 53 3 21 8 22 132 25 l129 3 -5 73
c-6 91 -33 140 -92 167 -54 24 -130 24 -179 -2z m138 -84 c16 -15 25 -36 25
-55 l0 -30 -75 0 c-74 0 -75 0 -75 26 0 31 50 84 80 84 11 0 32 -11 45 -25z"/>
<path d="M3220 2215 c0 -30 3 -35 23 -35 46 0 48 -8 45 -156 l-3 -139 -27 -3
c-25 -3 -28 -8 -28 -38 l0 -34 115 0 115 0 0 34 c0 30 -3 35 -27 38 l-28 3 -3
183 -2 182 -90 0 -90 0 0 -35z"/>
</g>
</svg>
