<svg version="1.0" xmlns="http://www.w3.org/2000/svg"
 width="481.000000pt" height="291.000000pt" viewBox="0 0 481.000000 291.000000"
 preserveAspectRatio="xMidYMid meet">

<g transform="translate(0.000000,291.000000) scale(0.100000,-0.100000)"
fill="#000000" stroke="none">
<path d="M1330 2245 l0 -265 -392 -2 -393 -3 -3 -57 -3 -58 396 0 395 0 0
-155 0 -155 -595 0 -595 0 0 -60 0 -60 593 -2 592 -3 3 -152 3 -153 -393 -2
-393 -3 -3 -34 c-2 -19 -1 -44 2 -57 l6 -24 388 -2 387 -3 3 -307 2 -308 270
0 270 0 0 65 0 65 -210 0 -210 0 0 940 0 940 210 0 210 0 0 60 0 60 -270 0
-270 0 0 -265z"/>
<path d="M2970 2450 l0 -60 210 0 210 0 0 -940 0 -940 -210 0 -210 0 0 -65 0
-65 270 0 270 0 0 310 0 310 395 0 395 0 0 60 0 60 -395 0 -395 0 0 155 0 155
600 0 600 0 0 60 0 60 -600 0 -600 0 0 155 0 155 395 0 395 0 0 60 0 60 -395
0 -395 0 0 265 0 265 -270 0 -270 0 0 -60z"/>
<path d="M1910 1890 c0 -37 2 -40 28 -40 l28 0 70 -442 70 -443 80 -3 79 -3
69 428 c37 235 70 430 72 432 2 2 6 2 8 0 4 -3 136 -835 136 -853 0 -4 37 -6
82 -4 l82 3 62 395 c33 217 64 416 68 443 7 44 9 47 37 47 27 0 29 2 29 40 l0
40 -99 0 c-107 0 -113 -3 -103 -57 3 -17 11 -23 29 -23 21 0 24 -4 20 -22 -3
-13 -31 -193 -63 -400 -32 -208 -60 -376 -62 -373 -3 2 -34 199 -71 437 l-67
433 -84 0 -84 0 -68 -430 c-37 -236 -68 -439 -70 -450 -2 -11 -29 151 -61 360
-32 209 -61 395 -64 413 -5 29 -3 32 21 32 24 0 26 4 26 40 l0 40 -100 0 -100
0 0 -40z"/>
</g>
</svg>