<?xml version="1.0" standalone="no"?>
<!DOCTYPE svg PUBLIC "-//W3C//DTD SVG 20010904//EN"
 "http://www.w3.org/TR/2001/REC-SVG-20010904/DTD/svg10.dtd">
<svg version="1.0" xmlns="http://www.w3.org/2000/svg"
 width="576.000000pt" height="433.000000pt" viewBox="0 0 576.000000 433.000000"
 preserveAspectRatio="xMidYMid meet">

<g transform="translate(0.000000,433.000000) scale(0.100000,-0.100000)"
fill="#000000" stroke="none">
<path d="M992 2588 c-39 -29 -97 -72 -129 -95 l-58 -42 -49 -151 -49 -150 48
-144 c28 -88 55 -152 69 -165 11 -11 72 -56 135 -100 l114 -81 151 0 151 0
130 98 130 97 49 149 49 148 -49 150 -49 149 -129 95 -130 94 -156 0 -156 0
-72 -52z m338 28 c0 -6 -79 -67 -176 -136 -42 -30 -89 -66 -105 -80 l-28 -25
49 -149 c28 -82 50 -153 50 -158 0 -5 -39 -7 -87 -6 -82 3 -87 4 -94 28 -4 14
-30 96 -58 182 -28 87 -51 162 -51 167 0 5 37 36 82 68 45 32 97 70 117 85 35
25 41 26 169 27 72 1 132 -1 132 -3z m111 -46 c30 -21 82 -60 117 -86 35 -25
65 -51 67 -57 1 -7 17 -56 34 -109 17 -53 31 -104 31 -112 0 -19 -14 -10 -150
89 -119 86 -160 115 -166 115 -2 0 -62 -43 -131 -95 -70 -52 -132 -95 -137
-95 -17 0 -62 148 -49 161 24 24 309 229 319 229 6 0 35 -18 65 -40z m-577
-315 c25 -77 53 -159 62 -182 l16 -43 169 0 c129 0 169 -3 168 -12 0 -7 -10
-42 -22 -78 l-22 -65 -204 -3 c-157 -2 -206 1 -213 10 -4 7 -26 70 -49 140
l-41 127 37 118 c38 120 45 137 50 131 2 -2 24 -66 49 -143z m686 9 c139 -101
160 -120 154 -138 -4 -12 -24 -75 -45 -142 l-39 -121 -79 -58 c-44 -32 -93
-66 -109 -77 l-30 -19 8 33 c4 18 28 95 54 171 25 76 46 146 46 157 0 17 -26
37 -254 202 -18 13 -16 17 40 61 32 25 67 46 76 47 10 0 90 -52 178 -116z
m-266 -34 l54 -39 -19 -63 c-11 -35 -24 -67 -28 -71 -4 -4 -38 -7 -75 -5 l-68
3 -23 67 -23 67 51 40 c29 22 58 40 65 40 7 1 37 -17 66 -39z m127 -93 c16
-12 41 -31 56 -43 l26 -20 -48 -155 c-26 -85 -56 -173 -66 -196 l-18 -43 -143
0 c-159 0 -137 -7 -277 93 -45 32 -81 63 -81 68 0 5 81 9 195 9 l194 0 51 161
c56 174 53 171 111 126z"/>
<path d="M3224 2466 c-3 -8 -4 -29 -2 -48 3 -33 3 -33 61 -36 l57 -3 0 51 0
50 -55 0 c-39 0 -57 -4 -61 -14z"/>
<path d="M1866 2433 c-3 -4 -6 -19 -6 -35 0 -23 4 -28 24 -28 33 0 41 -14 65
-105 21 -81 65 -245 98 -365 l18 -65 49 -3 c33 -2 52 1 57 10 5 7 36 97 70
201 33 103 64 187 67 187 7 -1 40 -96 103 -297 l32 -103 53 0 53 0 14 53 c8
28 40 147 72 262 31 116 62 213 68 217 7 4 20 8 30 8 15 0 18 7 15 33 l-3 32
-110 0 -110 0 -3 -32 c-3 -28 0 -32 27 -38 17 -4 31 -13 31 -20 0 -12 -64
-289 -76 -328 -7 -23 -20 -14 -28 20 -13 54 -119 378 -126 386 -10 11 -64 17
-76 9 -13 -9 -60 -147 -140 -411 -3 -8 -8 -10 -12 -5 -8 9 -66 236 -78 307 -6
36 -5 37 25 43 29 6 32 10 29 38 l-3 31 -112 2 c-61 1 -114 -1 -117 -4z"/>
<path d="M4431 2430 c-5 -3 -16 -25 -24 -50 -9 -25 -32 -90 -53 -145 -51 -140
-93 -254 -108 -295 -9 -23 -20 -36 -35 -38 -18 -3 -22 -9 -19 -35 l3 -32 98
-3 97 -3 0 34 c0 27 -5 36 -21 40 -21 6 -21 12 2 75 8 21 14 22 118 22 l109 0
11 -31 c16 -47 14 -66 -10 -72 -16 -4 -20 -12 -17 -34 l3 -28 98 -3 97 -3 0
34 c0 26 -5 36 -20 40 -11 3 -22 11 -24 19 -6 15 -67 183 -103 283 -14 39 -37
102 -51 140 -14 39 -30 75 -34 81 -8 12 -101 15 -117 4z m97 -218 c45 -137 47
-132 -43 -132 -41 0 -75 3 -75 7 0 16 73 223 79 223 3 0 21 -44 39 -98z"/>
<path d="M4836 2433 c-3 -4 -6 -18 -6 -33 0 -22 6 -29 33 -36 l32 -10 3 -219
c3 -233 2 -235 -46 -235 -20 0 -23 -4 -20 -32 l3 -33 123 -3 122 -3 0 36 c0
28 -4 35 -19 35 -47 0 -51 18 -51 233 0 111 4 207 8 214 4 6 20 15 35 18 24 6
28 12 25 39 l-3 31 -117 2 c-64 1 -119 -1 -122 -4z"/>
<path d="M3498 2338 c-3 -50 -5 -53 -33 -58 -27 -5 -30 -9 -30 -40 0 -31 3
-35 30 -40 l30 -5 5 -159 5 -158 30 -24 c37 -29 74 -38 125 -29 39 7 40 8 40
46 0 36 -2 39 -29 39 -54 0 -61 18 -61 160 l0 129 42 3 c41 3 42 4 43 38 0 34
-1 35 -42 38 l-43 3 0 55 0 54 -54 0 -55 0 -3 -52z"/>
<path d="M3045 2280 c-11 -4 -31 -20 -45 -35 l-25 -27 -5 29 c-5 28 -6 28 -87
31 -80 3 -83 2 -89 -22 -8 -32 0 -43 36 -51 l30 -7 0 -143 0 -143 -30 -7 c-26
-6 -30 -11 -30 -41 l0 -34 115 0 115 0 0 34 c0 30 -4 35 -30 41 l-30 7 0 112
c0 134 9 150 88 151 l47 0 6 50 c7 63 -11 78 -66 55z"/>
<path d="M3915 2283 c-104 -22 -164 -103 -165 -223 0 -84 17 -130 64 -176 71
-67 157 -79 263 -36 24 9 43 23 43 30 0 11 -16 48 -25 60 -1 1 -18 -5 -38 -13
-20 -8 -56 -15 -81 -15 -38 0 -48 5 -75 35 -17 20 -31 45 -31 55 0 19 7 20
128 20 71 0 131 2 133 4 2 3 2 41 -1 84 -5 68 -10 85 -34 113 -40 49 -119 76
-181 62z m94 -109 c12 -15 21 -37 21 -50 0 -23 -3 -24 -80 -24 -88 0 -93 5
-65 60 17 32 27 38 72 39 23 1 37 -6 52 -25z"/>
<path d="M3167 2273 c-4 -3 -7 -18 -7 -33 0 -21 7 -28 33 -35 l32 -10 3 -142
3 -141 -31 -7 c-26 -6 -30 -11 -30 -41 l0 -35 113 3 112 3 3 32 c3 28 0 32
-27 38 l-31 7 0 184 0 184 -83 0 c-46 0 -87 -3 -90 -7z"/>
</g>
</svg>
